<svg xmlns="http://www.w3.org/2000/svg" width="64" height="64" viewBox="0 0 64 64" fill="none"><path d="M32.0124 58.6731C17.2848 58.6731 5.3457 46.7341 5.3457 32.0064C5.3457 17.2789 17.2848 5.33984 32.0124 5.33984C46.7399 5.33984 58.6791 17.2789 58.6791 32.0064C58.6791 46.7341 46.7399 58.6731 32.0124 58.6731ZM32.0124 53.3397C43.7946 53.3397 53.3458 43.7885 53.3458 32.0064C53.3458 20.2244 43.7946 10.6732 32.0124 10.6732C20.2303 10.6732 10.679 20.2244 10.679 32.0064C10.679 43.7885 20.2303 53.3397 32.0124 53.3397ZM22.6791 37.3397H37.3458C38.0821 37.3397 38.6791 36.7429 38.6791 36.0064C38.6791 35.2701 38.0821 34.6731 37.3458 34.6731H26.6791C22.9972 34.6731 20.0124 31.6885 20.0124 28.0064C20.0124 24.3246 22.9972 21.3399 26.6791 21.3399H29.3458V16.0065H34.6791V21.3399H41.3458V26.6731H26.6791C25.9427 26.6731 25.3457 27.2701 25.3457 28.0064C25.3457 28.7429 25.9427 29.3397 26.6791 29.3397H37.3458C41.0277 29.3397 44.0125 32.3245 44.0125 36.0064C44.0125 39.6885 41.0277 42.6731 37.3458 42.6731H34.6791V48.0064H29.3458V42.6731H22.6791V37.3397Z" fill="#8A47EE"></path></svg>