<svg xmlns="http://www.w3.org/2000/svg" width="64" height="64" viewBox="0 0 64 64" fill="none"><path d="M53.334 32.0026C53.334 20.2205 43.7828 10.6693 32.0006 10.6693C20.2186 10.6693 10.6673 20.2205 10.6673 32.0026C10.6673 43.7847 20.2186 53.3359 32.0006 53.3359C43.7828 53.3359 53.334 43.7847 53.334 32.0026ZM58.6673 32.0026C58.6673 46.7301 46.7281 58.6693 32.0006 58.6693C17.273 58.6693 5.33398 46.7301 5.33398 32.0026C5.33398 17.275 17.273 5.33594 32.0006 5.33594C46.7281 5.33594 58.6673 17.275 58.6673 32.0026ZM36.0014 21.3359C36.8748 22.4988 37.5006 23.8582 37.8006 25.3359H42.6673V29.3359H37.8006C36.874 33.9005 32.8385 37.3359 28.0006 37.3359H27.4958L37.4148 47.2551L34.5865 50.0834L21.334 36.8311V33.3359H28.0006C30.6132 33.3359 32.8356 31.6663 33.6593 29.3359H21.334V25.3359H33.6593C32.8356 23.0056 30.6132 21.3359 28.0006 21.3359H21.334V17.3359H42.6673V21.3359H36.0014Z" fill="#8A47EE"></path></svg>