<svg xmlns="http://www.w3.org/2000/svg" width="297" height="70" viewBox="0 0 297 70" fill="none"><path d="M0.666667 6C0.666667 3.05448 3.05448 0.666667 6 0.666667C8.94552 0.666667 11.3333 3.05448 11.3333 6C11.3333 8.94552 8.94552 11.3333 6 11.3333C3.05448 11.3333 0.666667 8.94552 0.666667 6ZM6 64.5V65.5H5V64.5H6ZM286.167 64.5C286.167 61.5545 288.554 59.1667 291.5 59.1667C294.446 59.1667 296.833 61.5545 296.833 64.5C296.833 67.4455 294.446 69.8333 291.5 69.8333C288.554 69.8333 286.167 67.4455 286.167 64.5ZM7 6V64.5H5V6H7ZM6 63.5H291.5V65.5H6V63.5Z" fill="#482989"></path></svg>