<svg xmlns="http://www.w3.org/2000/svg" width="297" height="70" viewBox="0 0 297 70" fill="none"><path d="M0.666667 64.5C0.666667 67.4455 3.05448 69.8333 6 69.8333C8.94552 69.8333 11.3333 67.4455 11.3333 64.5C11.3333 61.5545 8.94552 59.1667 6 59.1667C3.05448 59.1667 0.666667 61.5545 0.666667 64.5ZM6 6V5H5V6H6ZM286.167 6C286.167 8.94552 288.554 11.3333 291.5 11.3333C294.446 11.3333 296.833 8.94552 296.833 6C296.833 3.05448 294.446 0.666667 291.5 0.666667C288.554 0.666667 286.167 3.05448 286.167 6ZM7 64.5V6H5V64.5H7ZM6 7H291.5V5H6V7Z" fill="#482989"></path></svg>